<svg id="Layer_1" data-name="Layer 1" xmlns="http://www.w3.org/2000/svg" viewBox="0 0 1784.61 637.06"><defs><style>.cls-1{fill:#1d1d1b;}.cls-2{fill:#00b0bd;}</style></defs><polygon class="cls-1" points="914.65 215.87 977.62 269.39 967.59 331.57 1071.97 331.57 1057.77 421.62 832.78 421.62 884.92 92.29 1106.39 92.29 1092.14 182.24 991.23 182.24 986.11 215.87 914.65 215.87"/><path class="cls-1" d="M1694.22,122.45h4.11c4.72,0,8.68-1.72,8.68-6.14,0-3.12-2.31-6.26-8.68-6.26a26.58,26.58,0,0,0-4.11.28Zm0,19.78h-5.72V106.51a63.78,63.78,0,0,1,10.13-.85c5.38,0,9,1.11,11.1,2.7s3.28,4,3.28,7.4c0,4.68-3.14,7.55-7,8.68v.26c3.15.59,5.26,3.44,6,8.7.86,5.55,1.71,7.69,2.3,8.83h-6c-.88-1.14-1.71-4.39-2.43-9.1s-3.12-6.25-7.66-6.25h-4Zm6-45.69c-14.11,0-25.63,12.09-25.63,27,0,15.24,11.52,27.22,25.74,27.22s25.66-12,25.66-27.07-11.4-27.18-25.66-27.18Zm.11-5c17.53,0,31.47,14.23,31.47,32,0,18.1-13.94,32.2-31.58,32.2a32.11,32.11,0,0,1,0-64.21Z"/><path class="cls-1" d="M312.88,283.86l-5.52-67.28c-1.47-16.14-1.39-32.87-1.31-49.05H301L257.25,283.86ZM199.49,421.92H52.83L245.71,40.58H399l75.65,381.34H327.94l-5.11-47.55H218.14Z"/><path class="cls-1" d="M630.28,323.21h7.46c39.73,0,73.19-18.34,80.06-61.56,7.32-46.3-16.19-66-59.9-66h-7.41ZM547.15,92.58H669c110.53,0,187.6,48.48,168.44,169.44-15.52,97.84-94.35,159.9-190.9,159.9H495Z"/><path class="cls-1" d="M1135,304l5.63,4.83c19.72,16.55,44.5,30.09,73.38,30.09,12.38,0,32.9-4.78,35.38-19.63s-13.8-16.19-24.91-18.37L1200,296.55c-47.7-8.31-84.39-35.85-75.82-87.33,13-78.2,95-121.86,170.22-121.86,39.42,0,74.14,9.14,104.8,28.85l-47.94,84.23c-19.24-14-41.7-24.91-68.78-24.91-11,0-27.69,3.93-30,17.52-2,12.18,13.23,14,22.54,16.17l27.4,6.13c51.31,11.32,85.35,38.43,76,94.34-13.08,78.58-94.74,117.45-169.52,117.45-43.56,0-92.13-11.36-128-30.15Z"/><path class="cls-1" d="M1569.42,302.67l-4.84-58.11c-1.22-13.94-1.11-28.36-1.11-42.35h-4.36l-37.79,100.46Zm-97.94,119.25h-126.7L1511.41,92.58h132.31l65.35,329.34H1582.36l-4.4-41.13h-90.41Z"/><polygon class="cls-2" points="1070.55 321.93 1064.84 266.09 1111.48 233.15 1061.63 233.44 1053.7 189.93 1026.9 233.39 971.45 232.75 971.3 233.44 1010.64 266.14 985.95 322.07 1035.53 285.72 1070.55 321.93"/><path class="cls-2" d="M1055.58,478.06l-3.72,30.67c-9.11-7.62-19-11.34-30.3-11.34-22.87,0-39,15.06-39,36.07,0,19.89,14.13,33.28,34.76,33.28,9.67,0,18.78-2.42,28.45-7.81l-3.9,31.61c-13.58,4.83-19.71,6-29.19,6C976,596.49,950.36,571,950.36,535c0-37.74,29.74-67.3,67.67-67.3C1031.41,467.65,1042.38,470.62,1055.58,478.06Z"/><path class="cls-2" d="M1095.55,573.25l-9.48,20.82h-35l61.54-124H1148l29.93,124H1145l-5.21-20.82Zm11.53-24.54h26.77l-5.2-23.62c-2.05-9.48-2.23-10.59-2.79-14.31a35.86,35.86,0,0,1-.75-4.46,130.67,130.67,0,0,1-5.57,14.68Z"/><path class="cls-2" d="M1328.5,470.06l-15.24,124h-34.4L1246,538.48c-5.39-8.74-10-18.22-15.25-30.68v5.58a179.47,179.47,0,0,1-1.3,23.43l-7.06,57.26h-31.42l15.24-124H1240l35.32,59.87,5.39,10,4.84,9.48,2.41,4.65a193.74,193.74,0,0,1,1.49-21.2l7.62-62.84Z"/><path class="cls-2" d="M1373.12,573.25l-9.48,20.82h-35l61.54-124h35.32l29.93,124h-32.9l-5.21-20.82Zm11.53-24.54h26.77l-5.21-23.62c-2-9.48-2.23-10.59-2.78-14.31a35.86,35.86,0,0,1-.75-4.46,132.66,132.66,0,0,1-5.57,14.68Z"/><path class="cls-2" d="M1483.74,470.06h35.14c17.47,0,36.25,3,49.64,15.43,10.59,9.86,15.61,23.8,15.61,41.84,0,26.95-9.85,41.64-20.82,50.75-18.78,15.43-41.27,16-53.91,16h-40.9Zm28.07,27.33-8.55,69.35h9.48c16.18,0,24.73-6.51,27.89-9.48,6.88-6.32,11.15-16.73,11.15-28.45,0-11-3.53-19.33-8.92-24.35-6.69-6.14-15.62-7.07-22.49-7.07Z"/><path class="cls-2" d="M1626.71,573.25l-9.48,20.82h-35l61.54-124h35.33l29.93,124h-32.91l-5.2-20.82Zm11.52-24.54H1665l-5.21-23.62c-2-9.48-2.23-10.59-2.79-14.31a36.3,36.3,0,0,1-.74-4.46,132.44,132.44,0,0,1-5.58,14.68Z"/></svg>