<svg width="292" height="37" viewBox="0 0 292 37" fill="none" xmlns="http://www.w3.org/2000/svg">
<path d="M20.6122 0.00713731C16.0223 -0.11919 11.7903 1.43885 8.48478 4.09172C8.21107 4.32332 8.19001 4.74441 8.44267 4.99707L12.6115 9.16587C12.822 9.37642 13.1589 9.39747 13.3905 9.22903C15.3486 7.79732 17.7909 6.9762 20.4227 7.06042C26.5075 7.22885 31.4553 12.2188 31.5395 18.3246C31.6448 24.7252 26.4864 29.9467 20.1069 29.9467C17.6014 29.9467 15.2854 29.1256 13.3905 27.757C13.1589 27.5886 12.822 27.6097 12.6115 27.8202L8.44267 31.989C8.19001 32.2417 8.21107 32.6628 8.48478 32.8944C11.664 35.463 15.7065 37 20.1069 37C30.4026 37 38.7402 28.5782 38.5928 18.2404C38.4665 8.34474 30.4657 0.259792 20.6122 0.00713731Z" fill="#0A1B5F"/>
<path d="M10.7799 25.9675C10.9905 25.757 11.0115 25.4412 10.8431 25.1885C9.47455 23.2936 8.65342 20.9776 8.65342 18.4721C8.65342 15.9666 9.47455 13.6296 10.8431 11.7557C11.0115 11.5241 10.9905 11.1872 10.7799 10.9767L5.47419 5.67094C5.22153 5.41828 4.80044 5.43934 4.56884 5.71305C1.72647 9.18705 0 13.6296 0 18.4932C0 23.3568 1.70542 27.7782 4.56884 31.2522C4.80044 31.5259 5.22153 31.547 5.47419 31.2943L10.7799 25.9675Z" fill="#0061FF"/>
<path d="M75.8197 10.2608C75.6512 9.37649 75.3565 8.51325 74.9564 7.65001C74.5564 6.78678 74.0511 5.96565 73.4615 5.16558C72.851 4.3655 72.1141 3.6707 71.2508 3.06012C70.3876 2.44954 69.377 1.96528 68.2611 1.60736C67.1241 1.24943 65.8398 1.05994 64.4291 1.05994H45.48C44.8905 1.05994 44.4062 1.54419 44.4062 2.13372V34.7262C44.4062 35.3157 44.8905 35.8 45.48 35.8H49.6278C50.2173 35.8 50.7016 35.3157 50.7016 34.7262V27.2729H64.4291C65.2082 27.2729 66.0293 27.1886 66.9136 26.9992C67.7979 26.8307 68.6611 26.536 69.5243 26.157C70.3876 25.778 71.2087 25.2727 72.0088 24.6621C72.8089 24.0515 73.5037 23.3146 74.1142 22.4514C74.7248 21.5881 75.2091 20.5986 75.567 19.4616C75.9249 18.3247 76.0934 17.0403 76.0934 15.6086V12.7452C76.0723 11.9662 75.9881 11.1451 75.8197 10.2608ZM69.777 15.6086C69.777 16.4087 69.6507 17.1456 69.398 17.7773C69.1454 18.4089 68.7664 18.9563 68.3032 19.4195C67.84 19.8827 67.2715 20.2406 66.6188 20.4933C65.9661 20.767 65.2292 20.9354 64.4291 20.9986H50.7016V7.35525H64.4291C65.2503 7.35525 65.9872 7.48158 66.6188 7.75529C67.2504 8.029 67.7979 8.38692 68.24 8.85012C68.6822 9.31332 69.0401 9.8818 69.2927 10.5555C69.5454 11.2082 69.7138 11.9451 69.7981 12.7452L69.777 15.6086Z" fill="#0A1B5F"/>
<path d="M147.825 34.5788C147.825 35.2525 147.278 35.821 146.583 35.821H142.962C142.625 35.821 142.309 35.6736 142.077 35.442L122.413 11.9662V34.7262C122.413 35.3157 121.928 35.8 121.339 35.8H117.191C116.601 35.8 116.117 35.3157 116.117 34.7262V2.13372C116.117 1.54419 116.601 1.05994 117.191 1.05994H120.918C121.254 1.05994 121.57 1.20732 121.802 1.43892L141.509 24.9779V2.13372C141.509 1.54419 141.993 1.05994 142.583 1.05994H146.731C147.32 1.05994 147.804 1.54419 147.804 2.13372V34.5788H147.825Z" fill="#0A1B5F"/>
<path d="M257.414 34.579C257.414 35.2528 256.866 35.8213 256.171 35.8213H252.55C252.213 35.8213 251.897 35.6739 251.666 35.4423L232.022 11.9664V34.7264C232.022 35.3159 231.538 35.8002 230.948 35.8002H226.8C226.211 35.8002 225.727 35.3159 225.727 34.7264V2.13396C225.727 1.54444 226.211 1.06018 226.8 1.06018H230.527C230.864 1.06018 231.18 1.20756 231.411 1.43916L251.097 24.9782V2.13396C251.097 1.54444 251.582 1.06018 252.171 1.06018H256.319C256.908 1.06018 257.393 1.54444 257.393 2.13396V34.579H257.414Z" fill="#0A1B5F"/>
<path d="M109.275 29.5046H88.1367V21.6092H106.433C107.023 21.6092 107.507 21.1249 107.507 20.5354V16.3455C107.507 15.756 107.023 15.2718 106.433 15.2718H88.1367V7.35525H109.275C109.865 7.35525 110.349 6.871 110.349 6.28147V2.13372C110.349 1.54419 109.865 1.05994 109.275 1.05994H82.8941C82.3046 1.05994 81.8203 1.54419 81.8203 2.13372V34.7262C81.8203 35.3157 82.3046 35.8 82.8941 35.8H109.254C109.844 35.8 110.328 35.3157 110.328 34.7262V30.5784C110.37 29.9889 109.886 29.5046 109.275 29.5046Z" fill="#0A1B5F"/>
<path d="M215.663 1.05994H205.641C203.136 1.05994 200.82 1.48103 198.714 2.34426C196.588 3.2075 194.756 4.40761 193.198 5.92354C191.64 7.46052 190.44 9.29227 189.555 11.4188C188.671 13.5453 188.25 15.8823 188.25 18.4299V34.7262C188.25 35.3157 188.734 35.8 189.324 35.8H193.493C194.082 35.8 194.566 35.3157 194.566 34.7262V27.2939H213.684V34.7472C213.684 35.3368 214.168 35.821 214.758 35.821H218.905C219.495 35.821 219.979 35.3368 219.979 34.7472V6.07092V2.13372C219.979 1.54419 219.495 1.05994 218.905 1.05994H215.663ZM213.642 20.9775H194.545V18.4299C194.545 16.6614 194.798 15.1665 195.282 13.9243C195.766 12.6821 196.398 11.6504 197.156 10.8293C197.914 10.0081 198.756 9.35543 199.662 8.89223C200.567 8.42903 201.43 8.07111 202.251 7.86056C203.072 7.62896 203.788 7.50263 204.399 7.43947C205.03 7.3763 205.431 7.35525 205.62 7.35525H213.642V20.9775Z" fill="#0A1B5F"/>
<path d="M290.614 29.5046H269.496V21.6092H287.792C288.382 21.6092 288.866 21.1249 288.866 20.5354V16.3455C288.866 15.756 288.382 15.2718 287.792 15.2718H269.496V7.35525H290.635C291.224 7.35525 291.709 6.871 291.709 6.28147V2.13372C291.709 1.54419 291.224 1.05994 290.635 1.05994H264.253C263.664 1.05994 263.18 1.54419 263.18 2.13372V34.7262C263.18 35.3157 263.664 35.8 264.253 35.8H290.614C291.203 35.8 291.688 35.3157 291.688 34.7262V30.5784C291.709 29.9889 291.224 29.5046 290.614 29.5046Z" fill="#0A1B5F"/>
<path d="M181.386 29.5046H159.889V2.13372C159.889 1.54419 159.405 1.05994 158.815 1.05994H154.668C154.078 1.05994 153.594 1.54419 153.594 2.13372V34.7262C153.594 35.3157 154.078 35.8 154.668 35.8H181.407C181.996 35.8 182.481 35.3157 182.481 34.7262V30.5784C182.481 29.9889 181.975 29.5046 181.386 29.5046Z" fill="#0A1B5F"/>
</svg>
