<svg width="451" height="60" viewBox="0 0 451 60" fill="none" xmlns="http://www.w3.org/2000/svg">
<g clip-path="url(#clip0_4239_183)">
<path d="M6.97069 48.6888L0 9.95117H8.60065L13.4559 39.7413H10.1266L23.2009 9.95117H29.9982L34.6107 39.7413H31.2467L44.6679 9.95117H53.2339L35.2002 48.6888H28.4376L23.6865 18.9333H26.9117L13.6986 48.6888H6.93601H6.97069Z" fill="#DB0B12"/>
<path d="M52.575 48.6887L58.2625 8.84137H66.7244L61.0369 48.6887H52.575ZM70.2271 48.6887L72.4119 33.4989C72.62 32.1464 72.3426 31.0366 71.5796 30.1696C70.8167 29.3026 69.7763 28.8864 68.4584 28.8864C67.5914 28.8864 66.7591 29.0945 66.0308 29.476C65.2679 29.8575 64.6436 30.4124 64.1581 31.106C63.6726 31.7996 63.3258 32.5972 63.2217 33.5336L60.2046 31.9383C60.5167 29.8575 61.2103 28.0194 62.32 26.4588C63.4298 24.8982 64.8517 23.6844 66.551 22.8174C68.2503 21.9504 70.0884 21.5343 72.0998 21.5343C74.1113 21.5343 75.9493 21.9504 77.4059 22.8174C78.8624 23.6844 79.9028 24.8635 80.5617 26.3895C81.2207 27.9154 81.3941 29.6841 81.1166 31.6955L78.689 48.7581H70.2271V48.6887Z" fill="#DB0B12"/>
<path d="M97.8673 49.2783C95.0929 49.2783 92.7 48.6541 90.6885 47.4056C88.6771 46.1571 87.1859 44.4925 86.1801 42.3423C85.2091 40.2268 84.897 37.8339 85.2785 35.1982C85.6599 32.5972 86.631 30.2737 88.1916 28.1582C89.7522 26.0774 91.7289 24.4127 94.0872 23.1989C96.4454 21.9851 99.0464 21.3609 101.856 21.3609C104.665 21.3609 106.988 21.9505 109.034 23.1643C111.08 24.3781 112.572 26.0427 113.577 28.1235C114.548 30.239 114.861 32.5626 114.479 35.1636C114.098 37.8339 113.127 40.2268 111.531 42.3076C109.936 44.4231 107.959 46.0878 105.601 47.3363C103.243 48.5847 100.642 49.209 97.8673 49.209V49.2783ZM98.9424 41.614C100.122 41.614 101.197 41.3713 102.168 40.8511C103.139 40.3309 103.971 39.6026 104.595 38.6316C105.219 37.6605 105.636 36.5508 105.809 35.3023C105.982 34.0885 105.878 33.0134 105.497 32.077C105.115 31.1407 104.526 30.4124 103.694 29.8922C102.861 29.372 101.89 29.0946 100.711 29.0946C99.532 29.0946 98.4569 29.372 97.4511 29.8922C96.4454 30.4124 95.6478 31.1754 94.9889 32.1117C94.3299 33.0481 93.9485 34.1232 93.7751 35.3023C93.6017 36.5508 93.7057 37.6605 94.0525 38.6316C94.434 39.6026 95.0235 40.3309 95.8559 40.8511C96.6882 41.3713 97.6939 41.614 98.873 41.614H98.9424Z" fill="#DB0B12"/>
<path d="M117.739 48.6887L123.426 8.84137H131.888L126.2 48.6887H117.739Z" fill="#DB0B12"/>
<path d="M146.246 49.2784C143.368 49.2784 140.871 48.6889 138.824 47.5097C136.778 46.3306 135.252 44.666 134.281 42.5505C133.31 40.435 132.998 38.0074 133.414 35.3024C133.796 32.6667 134.767 30.3084 136.293 28.193C137.853 26.0775 139.761 24.4475 142.119 23.2337C144.443 22.0199 146.974 21.4304 149.679 21.4304C152.384 21.4304 154.604 21.9852 156.442 23.1297C158.28 24.2741 159.667 25.8347 160.534 27.8462C161.401 29.8576 161.679 32.1465 161.297 34.7475C161.228 35.2677 161.124 35.7879 160.985 36.3081C160.846 36.8283 160.638 37.4179 160.361 38.0768L137.403 38.1808L138.235 32.3546L157.552 32.2505L153.563 34.7128C153.737 33.2216 153.668 31.9731 153.39 30.9674C153.078 29.9616 152.558 29.1987 151.76 28.6438C150.997 28.0889 149.991 27.8115 148.778 27.8115C147.46 27.8115 146.281 28.1236 145.206 28.7478C144.131 29.3721 143.264 30.2391 142.57 31.3142C141.876 32.4239 141.425 33.7418 141.217 35.2677C141.009 36.7936 141.079 38.1461 141.495 39.2906C141.911 40.435 142.57 41.302 143.541 41.8916C144.512 42.4811 145.691 42.7933 147.113 42.7933C148.396 42.7933 149.61 42.5505 150.72 42.0997C151.829 41.6488 152.87 40.9552 153.806 40.0535L157.794 44.666C156.269 46.2266 154.5 47.4057 152.523 48.134C150.546 48.897 148.431 49.2438 146.177 49.2438L146.246 49.2784Z" fill="#DB0B12"/>
<path d="M173.99 49.3825C172.429 49.3825 170.903 49.1744 169.412 48.7582C167.955 48.3421 166.603 47.7525 165.424 46.9896C164.245 46.2266 163.273 45.3596 162.441 44.3886L167.955 39.568C168.718 40.5044 169.689 41.2674 170.799 41.7876C171.909 42.3078 173.192 42.5852 174.649 42.5852C175.55 42.5852 176.313 42.4465 176.868 42.1344C177.458 41.8569 177.77 41.4061 177.839 40.8859C177.943 40.227 177.7 39.7414 177.111 39.4293C176.521 39.1172 175.758 38.8398 174.787 38.5623C173.816 38.2849 172.81 37.9728 171.77 37.626C170.73 37.2792 169.759 36.8283 168.857 36.2387C167.955 35.6492 167.262 34.8515 166.776 33.8111C166.291 32.7707 166.187 31.4529 166.429 29.7883C166.672 28.0543 167.331 26.563 168.371 25.3145C169.447 24.0661 170.834 23.0603 172.533 22.3321C174.232 21.6038 176.209 21.2223 178.463 21.2223C180.718 21.2223 182.729 21.6038 184.532 22.4014C186.37 23.1991 187.758 24.3435 188.694 25.8694L183.215 30.7593C182.521 29.7883 181.689 29.06 180.683 28.6438C179.712 28.2277 178.706 28.0196 177.735 28.0196C176.764 28.0196 176.036 28.1583 175.516 28.4704C174.995 28.7479 174.718 29.164 174.649 29.6149C174.579 30.1697 174.822 30.5859 175.412 30.9327C176.001 31.2448 176.764 31.5569 177.7 31.7997C178.637 32.0425 179.608 32.3546 180.683 32.7014C181.723 33.0482 182.694 33.5337 183.596 34.1926C184.498 34.8169 185.191 35.6839 185.642 36.7243C186.128 37.7647 186.232 39.1172 185.989 40.8165C185.607 43.4175 184.324 45.4983 182.174 47.0589C179.989 48.6195 177.25 49.3825 173.92 49.3825H173.99Z" fill="#DB0B12"/>
<path d="M201.63 49.2089C199.202 49.2089 197.121 48.5847 195.353 47.3709C193.584 46.1571 192.301 44.4924 191.469 42.4463C190.636 40.3655 190.428 38.0073 190.81 35.3369C191.191 32.6665 192.093 30.2736 193.515 28.1928C194.937 26.0773 196.671 24.4474 198.786 23.2683C200.867 22.0891 203.156 21.4996 205.583 21.4996C207.387 21.4996 208.947 21.8464 210.3 22.54C211.652 23.2336 212.693 24.2046 213.421 25.4184C214.149 26.6322 214.461 28.0541 214.357 29.6147L212.693 41.1285C212.346 42.6891 211.652 44.111 210.577 45.3248C209.502 46.5386 208.184 47.5096 206.658 48.2032C205.133 48.8968 203.433 49.2436 201.595 49.2436L201.63 49.2089ZM204.474 41.614C206.277 41.614 207.768 41.0244 209.017 39.8453C210.265 38.6662 211.028 37.175 211.271 35.3022C211.444 34.0884 211.34 33.0133 211.028 32.077C210.681 31.1406 210.092 30.4123 209.259 29.8921C208.427 29.3719 207.421 29.0945 206.242 29.0945C205.063 29.0945 204.057 29.3719 203.086 29.8921C202.115 30.4123 201.283 31.1753 200.624 32.1117C199.965 33.048 199.549 34.1578 199.376 35.3369C199.202 36.5507 199.306 37.6258 199.722 38.5622C200.104 39.4985 200.728 40.2615 201.561 40.7817C202.393 41.3019 203.364 41.5793 204.508 41.5793L204.474 41.614ZM209.051 48.6887L210.092 41.51L212.277 34.9901L211.93 28.5743L212.866 22.0545H221.155L217.34 48.7234H209.051V48.6887Z" fill="#DB0B12"/>
<path d="M224.311 48.6887L229.998 8.84137H238.46L232.772 48.6887H224.311Z" fill="#DB0B12"/>
<path d="M252.818 49.2784C249.939 49.2784 247.442 48.6889 245.396 47.5097C243.35 46.3306 241.824 44.666 240.853 42.5505C239.882 40.435 239.57 38.0074 239.986 35.3024C240.367 32.6667 241.338 30.3084 242.864 28.193C244.425 26.0775 246.332 24.4475 248.691 23.2337C251.014 22.0199 253.546 21.4304 256.251 21.4304C258.956 21.4304 261.175 21.9852 263.013 23.1297C264.852 24.2741 266.239 25.8347 267.106 27.8462C267.973 29.8576 268.25 32.1465 267.869 34.7475C267.799 35.2677 267.695 35.7879 267.557 36.3081C267.418 36.8283 267.21 37.4179 266.932 38.0768L243.974 38.1808L244.806 32.3546L264.123 32.2505L260.135 34.7128C260.308 33.2216 260.239 31.9731 259.962 30.9674C259.65 29.9616 259.129 29.1987 258.332 28.6438C257.569 28.0889 256.563 27.8115 255.349 27.8115C254.031 27.8115 252.852 28.1236 251.777 28.7478C250.702 29.3721 249.835 30.2391 249.141 31.3142C248.448 32.4239 247.997 33.7418 247.789 35.2677C247.581 36.7936 247.65 38.1461 248.066 39.2906C248.483 40.435 249.141 41.302 250.113 41.8916C251.084 42.4811 252.263 42.7933 253.685 42.7933C254.968 42.7933 256.182 42.5505 257.291 42.0997C258.401 41.6488 259.441 40.9552 260.378 40.0535L264.366 44.666C262.84 46.2266 261.071 47.4057 259.095 48.134C257.118 48.897 255.002 49.2438 252.748 49.2438L252.818 49.2784Z" fill="#DB0B12"/>
<path d="M266.551 48.6887L283.821 27.9501L289.994 31.6955L276.469 48.6887H266.551ZM294.052 48.6887L285.764 31.4527H284.654L272.793 9.95112H283.093L291.416 26.1814H292.457L304.179 48.6887H294.017H294.052ZM292.214 30.4123L286.11 26.6669L299.185 9.91644H309.069L292.214 30.3777V30.4123Z" fill="#DB0B12"/>
<path d="M304.976 59.9251L310.386 22.0198H318.848L317.877 28.8171L315.588 35.337L315.935 41.8222L313.334 59.9251H305.01H304.976ZM322.004 49.209C320.166 49.209 318.57 48.8622 317.149 48.1686C315.761 47.475 314.686 46.504 313.923 45.2902C313.16 44.0764 312.814 42.6545 312.918 41.0939L314.513 29.8575C314.894 28.2623 315.657 26.8057 316.767 25.5572C317.911 24.3087 319.264 23.303 320.859 22.5747C322.455 21.8464 324.154 21.465 325.957 21.465C328.454 21.465 330.57 22.0545 332.373 23.2683C334.142 24.4821 335.46 26.1121 336.292 28.1929C337.124 30.2737 337.367 32.6666 336.985 35.337C336.604 38.0073 335.702 40.3656 334.28 42.4464C332.859 44.5272 331.09 46.1572 328.94 47.371C326.79 48.5848 324.466 49.209 321.969 49.209H322.004ZM321.484 41.6141C322.663 41.6141 323.738 41.3366 324.709 40.8164C325.68 40.2962 326.512 39.5333 327.171 38.5969C327.83 37.6605 328.246 36.5508 328.42 35.3717C328.593 34.1579 328.489 33.0828 328.073 32.1464C327.691 31.2101 327.067 30.4471 326.269 29.9269C325.472 29.4067 324.466 29.1293 323.322 29.1293C322.177 29.1293 321.067 29.4067 320.096 29.9269C319.125 30.4471 318.328 31.2101 317.669 32.1464C317.01 33.0828 316.594 34.1925 316.455 35.3717C316.282 36.5855 316.386 37.6605 316.767 38.5969C317.149 39.5333 317.738 40.2962 318.57 40.8164C319.403 41.3366 320.374 41.6141 321.518 41.6141H321.484Z" fill="#DB0B12"/>
<path d="M340.35 48.6887L344.165 22.0198H352.627L348.812 48.6887H340.35ZM350.893 34.0884L347.772 31.3487C348.916 28.1928 350.442 25.7652 352.35 24.0659C354.257 22.3319 356.65 21.4996 359.563 21.4996C360.846 21.4996 361.956 21.7077 362.858 22.0891C363.759 22.4706 364.522 23.0602 365.147 23.8231L359.251 30.2043C358.974 29.8228 358.592 29.5453 358.072 29.3373C357.552 29.1292 356.962 29.0251 356.268 29.0251C354.847 29.0251 353.667 29.4413 352.696 30.3083C351.76 31.1753 351.171 32.4585 350.928 34.1925L350.893 34.0884Z" fill="#DB0B12"/>
<path d="M377.18 49.2784C374.302 49.2784 371.805 48.6889 369.759 47.5097C367.712 46.3306 366.187 44.666 365.215 42.5505C364.244 40.435 363.932 38.0074 364.348 35.3024C364.73 32.6667 365.701 30.3084 367.227 28.193C368.788 26.0775 370.695 24.4475 373.053 23.2337C375.377 22.0199 377.908 21.4304 380.613 21.4304C383.318 21.4304 385.538 21.9852 387.376 23.1297C389.214 24.2741 390.601 25.8347 391.468 27.8462C392.335 29.8576 392.613 32.1465 392.231 34.7475C392.162 35.2677 392.058 35.7879 391.919 36.3081C391.78 36.8283 391.572 37.4179 391.295 38.0768L368.337 38.1808L369.169 32.3546L388.486 32.2505L384.498 34.7128C384.671 33.2216 384.602 31.9731 384.324 30.9674C384.012 29.9616 383.492 29.1987 382.694 28.6438C381.931 28.0889 380.926 27.8115 379.712 27.8115C378.394 27.8115 377.215 28.1236 376.14 28.7478C375.065 29.3721 374.198 30.2391 373.504 31.3142C372.81 32.4239 372.36 33.7418 372.151 35.2677C371.943 36.7936 372.013 38.1461 372.429 39.2906C372.845 40.435 373.504 41.302 374.475 41.8916C375.446 42.4811 376.625 42.7933 378.047 42.7933C379.33 42.7933 380.544 42.5505 381.654 42.0997C382.764 41.6488 383.804 40.9552 384.74 40.0535L388.729 44.666C387.203 46.2266 385.434 47.4057 383.457 48.134C381.48 48.897 379.365 49.2438 377.111 49.2438L377.18 49.2784Z" fill="#DB0B12"/>
<path d="M404.925 49.3825C403.364 49.3825 401.838 49.1744 400.347 48.7582C398.89 48.3421 397.538 47.7525 396.359 46.9896C395.18 46.2266 394.209 45.3596 393.376 44.3886L398.89 39.568C399.653 40.5044 400.624 41.2674 401.734 41.7876C402.844 42.3078 404.127 42.5852 405.584 42.5852C406.485 42.5852 407.248 42.4465 407.803 42.1344C408.393 41.8569 408.705 41.4061 408.774 40.8859C408.878 40.227 408.635 39.7414 408.046 39.4293C407.456 39.1172 406.693 38.8398 405.722 38.5623C404.751 38.2849 403.746 37.9728 402.705 37.626C401.665 37.2792 400.694 36.8283 399.792 36.2387C398.89 35.6492 398.197 34.8515 397.711 33.8111C397.226 32.7707 397.122 31.4529 397.364 29.7883C397.607 28.0543 398.266 26.563 399.307 25.3145C400.382 24.0661 401.769 23.0603 403.468 22.3321C405.167 21.6038 407.144 21.2223 409.398 21.2223C411.653 21.2223 413.664 21.6038 415.467 22.4014C417.305 23.1991 418.693 24.3435 419.629 25.8694L414.15 30.7593C413.456 29.7883 412.624 29.06 411.618 28.6438C410.647 28.2277 409.641 28.0196 408.67 28.0196C407.699 28.0196 406.971 28.1583 406.451 28.4704C405.93 28.7479 405.653 29.164 405.584 29.6149C405.514 30.1697 405.757 30.5859 406.347 30.9327C406.936 31.2448 407.699 31.5569 408.635 31.7997C409.572 32.0425 410.543 32.3546 411.618 32.7014C412.658 33.0482 413.629 33.5337 414.531 34.1926C415.433 34.8169 416.126 35.6839 416.577 36.7243C417.063 37.7647 417.167 39.1172 416.924 40.8165C416.542 43.4175 415.259 45.4983 413.109 47.0589C410.924 48.6195 408.185 49.3825 404.855 49.3825H404.925Z" fill="#DB0B12"/>
<path d="M431.142 49.3825C429.582 49.3825 428.056 49.1744 426.564 48.7582C425.108 48.3421 423.755 47.7525 422.576 46.9896C421.397 46.2266 420.426 45.3596 419.594 44.3886L425.108 39.568C425.871 40.5044 426.842 41.2674 427.952 41.7876C429.061 42.3078 430.345 42.5852 431.801 42.5852C432.703 42.5852 433.466 42.4465 434.021 42.1344C434.61 41.8569 434.922 41.4061 434.992 40.8859C435.096 40.227 434.853 39.7414 434.263 39.4293C433.674 39.1172 432.911 38.8398 431.94 38.5623C430.969 38.2849 429.963 37.9728 428.923 37.626C427.882 37.2792 426.911 36.8283 426.01 36.2387C425.108 35.6492 424.414 34.8515 423.929 33.8111C423.443 32.7707 423.339 31.4529 423.582 29.7883C423.825 28.0543 424.484 26.563 425.524 25.3145C426.599 24.0661 427.986 23.0603 429.686 22.3321C431.385 21.6038 433.362 21.2223 435.616 21.2223C437.87 21.2223 439.882 21.6038 441.685 22.4014C443.523 23.1991 444.91 24.3435 445.847 25.8694L440.367 30.7593C439.674 29.7883 438.841 29.06 437.835 28.6438C436.864 28.2277 435.859 28.0196 434.888 28.0196C433.917 28.0196 433.188 28.1583 432.668 28.4704C432.148 28.7479 431.871 29.164 431.801 29.6149C431.732 30.1697 431.975 30.5859 432.564 30.9327C433.154 31.2448 433.917 31.5569 434.853 31.7997C435.789 32.0425 436.76 32.3546 437.835 32.7014C438.876 33.0482 439.847 33.5337 440.749 34.1926C441.65 34.8169 442.344 35.6839 442.795 36.7243C443.28 37.7647 443.384 39.1172 443.142 40.8165C442.76 43.4175 441.477 45.4983 439.327 47.0589C437.142 48.6195 434.402 49.3825 431.073 49.3825H431.142Z" fill="#DB0B12"/>
</g>
<defs>
<clipPath id="clip0_4239_183">
<rect width="446" height="59.9251" fill="white"/>
</clipPath>
</defs>
</svg>
